<?xml version="1.0" standalone="no"?>
<!DOCTYPE svg PUBLIC "-//W3C//DTD SVG 20010904//EN"
 "http://www.w3.org/TR/2001/REC-SVG-20010904/DTD/svg10.dtd">
<svg version="1.0" xmlns="http://www.w3.org/2000/svg"
 width="270.000000pt" height="270.000000pt" viewBox="0 0 270.000000 270.000000"
 preserveAspectRatio="xMidYMid meet">

<g transform="translate(0.000000,270.000000) scale(0.100000,-0.100000)"
fill="#FFFFFF" stroke="none">
<path d="M0 1350 l1 -1350 1349 0 1350 0 0 1350 0 1350 -1350 0 -1350 0 0
-1350z m1405 774 c-12 -9 -45 -14 -90 -14 -242 0 -470 -150 -586 -385 -42 -86
-69 -194 -69 -278 -1 -43 -3 -49 -12 -33 -7 12 -9 47 -5 95 19 238 169 453
394 562 93 46 190 67 308 67 71 0 77 -1 60 -14z m435 -394 l0 -40 -205 0 -205
0 0 40 0 40 205 0 205 0 0 -40z m-670 -10 l0 -40 -155 0 -155 0 0 40 0 40 155
0 155 0 0 -40z m335 -107 c-3 -10 -39 -91 -78 -180 l-72 -162 -50 -1 -51 0
-75 168 -76 167 -81 3 -82 3 0 -41 0 -40 68 0 67 0 -3 -45 c-2 -24 -7 -44 -10
-43 -4 0 -33 0 -64 -1 l-58 -1 0 -77 0 -78 85 3 c56 2 85 0 85 -7 0 -7 -43
-11 -125 -11 l-125 0 0 175 0 175 165 0 164 0 17 -32 c10 -18 34 -73 55 -123
l38 -90 24 55 c89 201 81 188 129 193 23 2 47 4 52 5 4 1 5 -6 1 -15z m335
-163 l0 -180 -40 0 -40 0 0 55 c0 50 -2 55 -22 55 -43 0 -103 -22 -138 -49
-46 -36 -55 -41 -90 -51 -30 -8 -30 -8 -30 30 0 30 8 48 32 76 46 52 99 74
181 74 l67 0 0 40 0 40 -75 0 -75 0 0 45 0 45 115 0 115 0 0 -180z m158 -82
c-9 -177 -80 -323 -218 -451 -185 -171 -435 -224 -658 -139 -50 19 -142 69
-142 77 0 2 28 -9 63 -25 95 -43 179 -61 281 -61 115 -1 168 12 285 68 79 38
108 59 175 127 124 125 206 303 206 448 0 32 3 58 6 58 4 0 4 -46 2 -102z
m-444 -146 c-7 -4 -14 -16 -17 -27 -4 -15 -5 -14 -6 8 -1 20 4 27 17 27 11 0
13 -3 6 -8z m103 2 c-3 -3 -12 -4 -19 -1 -8 3 -5 6 6 6 11 1 17 -2 13 -5z
m-823 -12 c-6 -4 -14 -14 -17 -22 -4 -10 -6 -8 -6 8 -1 15 5 22 17 22 10 0 13
-3 6 -8z m373 -14 c-3 -8 -6 -5 -6 6 -1 11 2 17 5 13 3 -3 4 -12 1 -19z m57 6
c3 -8 2 -12 -4 -9 -6 3 -10 10 -10 16 0 14 7 11 14 -7z m447 -17 c-10 -9 -11
-8 -5 6 3 10 9 15 12 12 3 -3 0 -11 -7 -18z m159 -67 c0 -5 -8 -10 -17 -10
-15 0 -16 2 -3 10 19 12 20 12 20 0z m-1818 -1055 c-2 -15 0 -25 7 -25 6 0 11
7 11 16 0 8 5 12 10 9 14 -9 -7 -35 -26 -35 -9 0 -14 12 -14 36 0 19 4 33 9
30 4 -3 6 -17 3 -31z"/>
</g>
</svg>
